<?xml version="1.0" encoding="UTF-8" standalone="no"?><!DOCTYPE svg PUBLIC "-//W3C//DTD SVG 1.1//EN" "http://www.w3.org/Graphics/SVG/1.1/DTD/svg11.dtd"><svg width="100%" height="100%" viewBox="0 0 72 72" version="1.1" xmlns="http://www.w3.org/2000/svg" xmlns:xlink="http://www.w3.org/1999/xlink" xml:space="preserve" xmlns:serif="http://www.serif.com/" style="fill-rule:evenodd;clip-rule:evenodd;stroke-linejoin:round;stroke-miterlimit:2;"><g id="color"><path d="M60,61l-48,0c-0.552,0 -1,-0.448 -1,-1l0,-48c0,-0.552 0.448,-1 1,-1l48,0c0.552,0 1,0.448 1,1l0,48c0,0.552 -0.448,1 -1,1Z" style="fill:#f2f2f2;fill-rule:nonzero;"/><g><text x="9.175px" y="52px" style="font-family:'AvenirNext-HeavyItalic', 'Avenir Next', sans-serif;font-weight:900;font-style:italic;font-size:45.198px;fill:#00cc0e;stroke:#000;stroke-width:1px;">1</text><text x="31.548px" y="52px" style="font-family:'AvenirNext-HeavyItalic', 'Avenir Next', sans-serif;font-weight:900;font-style:italic;font-size:45.198px;fill:#00cc0e;stroke:#000;stroke-width:1px;">1</text></g></g><g id="line"><path d="M60,61l-48,0c-0.552,0 -1,-0.448 -1,-1l0,-48c0,-0.552 0.448,-1 1,-1l48,0c0.552,0 1,0.448 1,1l0,48c0,0.552 -0.448,1 -1,1Z" style="fill:none;fill-rule:nonzero;stroke:#000;stroke-width:2px;stroke-linecap:round;stroke-miterlimit:10;"/></g></svg>