<?xml version="1.0" encoding="UTF-8" standalone="no"?><!DOCTYPE svg PUBLIC "-//W3C//DTD SVG 1.1//EN" "http://www.w3.org/Graphics/SVG/1.1/DTD/svg11.dtd"><svg width="100%" height="100%" viewBox="0 0 602 670" version="1.1" xmlns="http://www.w3.org/2000/svg" xmlns:xlink="http://www.w3.org/1999/xlink" xml:space="preserve" xmlns:serif="http://www.serif.com/" style="fill-rule:evenodd;clip-rule:evenodd;stroke-linejoin:round;stroke-miterlimit:2;"><g><path d="M350.5,436.3c9.7,3.2 17.7,9.5 26.1,14.9c15.1,9.7 29,21.1 42.2,33.2c23.6,21.7 43.9,46 59.5,74.1c9.2,16.6 16.1,34.2 21,52.7c0.7,-0.2 1.4,-0.3 1.8,-0.6c9.2,-6.3 17.9,-13 24.8,-21.9c8,-10.2 10.7,-21.3 6.6,-34c-5.7,-17.9 -13.8,-34.7 -23.9,-50.3c-27.1,-41.7 -63,-74.4 -105.4,-100.1c-18.6,-11.3 -38.5,-20.5 -56.9,-32.3c-31.8,-20.3 -60.2,-44.3 -81.2,-76.1c-15,-22.8 -24.8,-47.6 -26.9,-75c-2.1,-27.3 4.5,-53.4 12,-79.2c0.9,-3.1 2.9,-5.2 6.3,-3.9c3,1.2 3.4,3.8 2.5,6.7c-2.1,7.3 -4,14.6 -6.1,21.9c-0.4,1.3 -0.9,2.6 0.2,3.8c1.4,1.5 2.8,0.3 4.1,-0.2c10.7,-4.3 17.9,-12.3 23,-22.3c8.7,-17.3 10.1,-35.7 5.3,-54.1c-7.6,-29.1 -24.8,-50.9 -53.1,-62.3c-25.9,-10.5 -51,-4.7 -75.4,6.1c-22.7,10.1 -40.9,26.4 -57.7,44.1c-29,30.4 -52.2,64.9 -69.3,103.3c-13.6,30.7 -22.4,62.6 -24.4,96.2c-1.8,29.9 1.2,59.4 8.5,88.5c10.5,41.9 29.2,79.6 56.1,113.4c0.9,1.1 1.5,3.4 3.1,2.4c1.4,-0.8 0.2,-2.7 -0.5,-4c-0.8,-1.6 -1.6,-3.2 -2.4,-4.8c-15.6,-30.9 -24,-63.2 -20.2,-98.1c2.7,-24.1 10.8,-46.1 25.7,-65.3c16.2,-21 37.5,-35.3 61.5,-45.8c8.6,-3.8 17.5,-6.9 26.4,-9.7c5.4,-1.7 7.5,0.6 6.6,6.1c-0.7,4.3 -1.3,8.6 -1.4,12.9c-1.3,28.5 5,55.5 16.6,81.3c7.2,16.2 19.3,29.1 31.3,41.8c16.8,17.9 33.9,35.5 48.8,55c22.4,29.2 39.1,61.4 50.5,96.3c6.6,20.5 11.3,41.4 14.5,62.6c2.3,15 3,30 1.2,45.2c-0.8,7.1 -0.6,7.5 6.7,7.3c19.8,-0.4 39.2,-3.7 58.5,-8.2c3.5,-0.8 4.8,-2.2 4,-5.7c-0.6,-2.6 -0.6,-5.3 -0.9,-8c-2.7,-25.6 -10.3,-49.7 -20.2,-73.3c-10.1,-24 -25.1,-45.1 -38.3,-67.3c2.8,5 7.6,8.2 11,12.6c12.8,16.3 23.6,33.7 32.5,52.4c12.4,26.1 20.6,53.4 22.9,82.2c0.3,3.7 1.9,3.7 4.5,2.8c27.6,-8.7 53.7,-20.5 78.1,-36.1c1.6,-1 2.2,-2 1.6,-4c-1.6,-5.1 -2.7,-10.4 -4.4,-15.5c-11.4,-34.5 -30.6,-64.2 -54.6,-91.1c-24.4,-27.2 -52.6,-50.2 -82.8,-70.6Zm51.6,-41.9c46.8,27 85.7,61.6 115.2,106.6c12.2,-12.7 22.7,-26 32.2,-40.3c14.9,-22.5 26.6,-46.6 35,-72.3c8.2,-25 12.9,-50.6 14.1,-76.8c1.2,-25.6 -0.6,-51.1 -6.2,-76.1c-6,-26.8 -14.2,-52.7 -28.8,-76.2c-22.7,-36.4 -53.3,-64.2 -92.3,-82.4c-32.6,-15 -66.4,-22.5 -102.3,-15.8c-25.8,4.8 -49.2,14.9 -70.3,30.5c-3.1,2.2 -3.2,4.6 -2.8,7.5c2.3,14.9 1.4,29.5 -3.8,43.7c-7,19 -18.9,33.1 -39.6,37.9c-1.9,0.4 -2.2,1.4 -2.6,3c-4.1,17.5 -3.5,34.9 -0,52.4c5.3,26.6 17.7,49.4 38,67.2c31.8,28 79.5,32 116,9.6c33.2,-20.5 49.7,-50.8 48.7,-89.9c-0.8,-29.8 -15.4,-51.1 -42.2,-64.1c-6.1,-3 -12.7,-4.9 -19.2,-7.4c1.7,-1.3 3.4,-1.3 5,-1.2c29.8,2.3 54.8,14 72.4,38.8c20.2,28.5 26.2,60.6 21,94.7c-4.3,28.4 -18.7,52 -38.3,72.5c-14.2,15 -30.4,27.4 -49.2,38.1Zm-99.2,199.9c4,0 8.1,-0.1 12.1,0c2.8,0.1 4.2,-0.2 3.4,-4c-8.8,-42 -24.5,-81.2 -48.8,-116.8c-16.7,-24.5 -37,-45.8 -57.2,-67.2c-14,-14.9 -27.8,-30 -35.8,-49.3c-7.7,-18.7 -13.2,-37.9 -15.1,-58.2c-0.9,-9.6 -1.2,-19.1 -0,-28.7c0.2,-1.5 1.2,-4.2 -2.4,-3c-20.6,7 -40.2,16.1 -56.9,30.2c-41.3,34.9 -52,79.9 -41.5,131.1c5,24.3 16.2,46.3 29.1,67.4c6.5,10.5 12.2,21.7 21.9,29.8c17.4,14.4 36.1,26.8 56.3,37c42.6,21.3 87.6,31.5 134.9,31.7Zm-29.9,-591.4c-22.9,0.2 -41.9,5 -60.5,11c-2.1,0.7 -5.9,0.7 -5.5,3.4c0.5,3.2 4.2,2.3 6.8,2.5c18.7,1.5 35.7,7.2 49.6,20.2c12.5,11.7 22.4,25.3 27.9,41.6c1.1,3.3 2.3,3 4.6,1.2c2.7,-2.1 5.5,-4.1 8.4,-5.9c22.4,-14 46.6,-22.8 73.1,-25.9c24.5,-2.9 48.2,-0.7 71.5,7.1c13.7,4.6 26.2,11.4 38.6,18.6c1.2,0.7 2.8,2.3 3.9,1.1c1.3,-1.3 -0,-3.1 -0.9,-4.4c-15.5,-22.6 -36.1,-38.6 -62.3,-47.4c-20.5,-6.9 -41.3,-4.5 -62.1,-2.3c-5,0.5 -10.1,3.2 -15.3,0.4c-25.1,-14 -52.5,-19.6 -77.8,-21.2Z" style="fill:#fdfdfd;fill-rule:nonzero;"/></g></svg>